<svg xmlns="http://www.w3.org/2000/svg" width="400" height="400" id="avatarSvg" class="svg"><g stroke="rgba(0,0,0,0.7)" fill="rgba(255,255,255,0.5)" stroke-width="3"><path d=""/></g><g fill="rgb(150, 100, 74)"><title>Avatar</title><g><defs><g id="hairBack00"><path d="&#xA;         m0 -50&#xA;c10 60 20 70 44.5 80&#xA;c0  0 -20 -20 0 -50&#xA;c10 50 20 60 44.5 80&#xA;c0  0 -20 -20 0 -50&#xA;c0 50  0 60 -10 80&#xA;c0  0 50 -20 34.5 -120&#xA;c10 10 10  10 10 15&#xA;c 0 -50 -50 -120 -111.25 -100&#xA;c0 -10 10 -10 10 -10&#xA;c -50 -10 -40 20 -66.75 20&#xA;c -100 10 -50 120  -70 160&#xA;c 10 -10 15 -10 22.25  -30&#xA;c 0 0 5 40 10 50&#xA;c 0 10 -10 -50 10 -100&#xA;c 0 20 10 30 22.25 30&#xA;c -10 -10 10 -40 10 -40&#xA;c 0 10 10 25 30 20&#xA;c -5 -10 -10 -20 10 -35&#xA;"/></g><g id="hairBack01"><path d="&#xA;        m0 -30&#xA;c 40 0 80 -59 84 80&#xA;c 30 -100 -20 -110 0 -180&#xA;c -10 0 -30 10 -39.5 40&#xA;c0 0 10 -20 0 -50&#xA;c 0 10 -30 40 -44.5 50&#xA;c0 0 10 -20 0 -50&#xA;M0 -30&#xA;c -40 0 -80 -59 -84 80&#xA;c-40 -150 50 -120 84 -190&#xA;"/></g><g id="hairBack02"><path d="&#xA;        M0 -40&#xA;c 40 0 70 -69 88 80&#xA;c20 -130 -40 -140 -88 -140&#xA;M0 -40&#xA;c -40 0 -70 -69 -88 80&#xA;c-20 -130 40 -140 88 -140&#xA;"/></g><g id="hairBack04"><path fill-rule="evenodd" d="&#xA;        M-30 -40&#xA;c 0 80 150 50 99 170&#xA;c 100 -220 -40 -220 -54.5 -220&#xA;c-50 0 -150 0 -99 140&#xA;c 0 -50 10 -70 54.5 -90&#xA;"/></g><g id="hairBack05"/><g id="hairBack06"><path d="&#xA;      M0 -110&#xA;      c 169 30 89 160 109 240&#xA;      c 0 -0 -0 5 -30 5&#xA;      l -3 -20&#xA;      l -2 20&#xA;      c 0 -0 -44.5 -0 -74 10&#xA;      M0 -110&#xA;      c -169 30 -89 160 -109 240&#xA;      c 0 -0 -0 5 10 5&#xA;      l 3 -12&#xA;      l 1 12&#xA;      c 0 -0 44.5 10 95 5&#xA;"/></g><g id="hairBack07"><defs><path d="&#xA;      M-30 -100&#xA;c0 60 10 100 -70 140&#xA;c-10 -40 -20 -100 70 -140&#xA;"/><path d="&#xA;      M-30 -100&#xA;c0 60 10 100 -50 140&#xA;c-10 -40 -20 -100 50 -140&#xA;"/><path d="&#xA;      M-30 -100&#xA;c0 60 20 100 -10 130&#xA;c-10 -40 -20 -80 10 -130&#xA;"/><path d="&#xA;      M-30 -100&#xA;  c30 60 10 100 140 150&#xA;c10 -40 -0 -150 -140 -150&#xA;&#xA;"/><path d="&#xA;      M-30 -100&#xA;c30 120 140 100 110 170&#xA;c40 -50 40 -180 -110 -170&#xA;"/><path d="&#xA;      M-30 -100&#xA;c30 60 10 100 100 130&#xA;c10 -40 -20 -130 -100 -130&#xA;"/><path d="&#xA;      M-30 -100&#xA;c0 60 10 100 40 120&#xA;c10 -40 20 -80 -40 -120&#xA;"/></defs><g><path d="&#xA;      M0 -110&#xA;      c 169 30 89 160 109 240&#xA;      c 0 -0 -0 5 -30 5&#xA;      l -3 -20&#xA;      l -2 20&#xA;      c 0 -0 -44.5 -0 -74 10&#xA;      M0 -110&#xA;      c -169 30 -89 160 -109 240&#xA;      c 0 -0 -0 5 16 5&#xA;      l 3 -12&#xA;      l 1 12&#xA;      c 0 -0 44.5 10 89 5&#xA;"/></g></g><g id="hairBack08"><g><path d="&#xA;      M0 -110&#xA;      c 149 0 89 160 109 240&#xA;      c 0 -0 -0 5 -30 5&#xA;      l -3 -20&#xA;      l -2 20&#xA;      c 0 -0 -44.5 -0 -74 10&#xA;      M0 -110&#xA;      c -149 0 -89 160 -109 240&#xA;      c 0 -0 -0 5 16 5&#xA;      l 3 -12&#xA;      l 1 12&#xA;      c 0 -0 44.5 10 89 5&#xA;"/></g></g></defs><use x="200" y="200" xlink:href="#hairBack01" xmlns:xlink="http://www.w3.org/1999/xlink" stroke="black" stroke-width="2" fill="#222"/><use x="200" y="200" xlink:href="#hairBack01" xmlns:xlink="http://www.w3.org/1999/xlink" stroke="black" stroke-width="2" fill="rgba(0,0,0,0.1)"/></g><g><defs><g id="shirt"><path d="m-125 0&#xA;c 25 -50 62.5 -50 125 -50&#xA;c 62.5 0 100 0 125 50"/></g><g id="shirt3" transform="scale(0.9, 0.9)"><use href="#shirt"/></g><g id="border"><path d="&#xA;        m0 0&#xA;c 0 50 90 50 90 0&#xA;l 10 10&#xA;c 0 50 -110 50 -110 0&#xA;l 10 -10"/></g></defs><g><use x="200" y="400" xlink:href="#shirt" xmlns:xlink="http://www.w3.org/1999/xlink" stroke="black" stroke-width="2" fill="#ff0000"/><use x="200" y="400" xlink:href="#shirt" xmlns:xlink="http://www.w3.org/1999/xlink" stroke="black" stroke-width="2" fill="rgba(0,0,0,0.2)"/><use x="200" y="400" xlink:href="#shirt3" xmlns:xlink="http://www.w3.org/1999/xlink" fill="#ff0000"/></g><!----></g><g><defs><radialGradient id="neckColor" cy="40%" r="0.7"><stop offset="60%" stop-color="rgb(0,0,0,0.2 )"/><stop offset="60%" stop-color="transparent"/></radialGradient><g id="neck"><path d="M-22.25 0&#xA;      c -10 30 -20 40 -30 40&#xA;      c 0 30 104.5 30 104.5 0&#xA;      M-22.25 0&#xA;      h44.5&#xA;      c 10 30 20 40 30 40&#xA;      "/></g><g id="neckSmaller" transform="scale(0.8, 1)"><use href="#neck"/></g></defs><use x="200" y="320" xlink:href="#neck" xmlns:xlink="http://www.w3.org/1999/xlink" stroke="black" stroke-width="2"/><use x="200" y="320" xlink:href="#neck" xmlns:xlink="http://www.w3.org/1999/xlink" fill="rgb(0,0,0,0.2)" stroke-width="2"/><use x="200" y="320" xlink:href="#neckSmaller" xmlns:xlink="http://www.w3.org/1999/xlink"/><use x="200" y="320" xlink:href="#neckSmaller" xmlns:xlink="http://www.w3.org/1999/xlink" fill="url(#neckColor)"/></g><g><defs><g id="shirt"><path d="m-125 0&#xA;c 25 -50 62.5 -50 125 -50&#xA;c 62.5 0 100 0 125 50"/></g><g id="shirt3" transform="scale(0.9, 0.9)"><use href="#shirt"/></g><g id="border"><path d="&#xA;        m0 0&#xA;c 0 50 90 50 90 0&#xA;l 10 10&#xA;c 0 50 -110 50 -110 0&#xA;l 10 -10"/></g></defs><!----><g><use x="155" y="345" xlink:href="#border" xmlns:xlink="http://www.w3.org/1999/xlink" fill="#fff" stroke-width="2" stroke="#000"/></g></g><g><defs><g id="ear"><path d="M -59 25.5&#xA;        h-20&#xA;        c -17.5 0,&#xA;          -35 -51&#xA;          0 -51"/></g></defs><use x="200" y="251" xlink:href="#ear" xmlns:xlink="http://www.w3.org/1999/xlink" stroke="black" stroke-width="2"/><use x="-200" y="251" transform="scale(-1, 1)" xlink:href="#ear" xmlns:xlink="http://www.w3.org/1999/xlink" stroke="black" stroke-width="2"/></g><g><defs><g id="head01"><path d="&#xA;m0 160&#xA;c -25 0 -78 -52 -78 -62&#xA;c -27 -104 0 -178 78 -178&#xA;M0 160&#xA;c 25 0 78 -52 78 -62&#xA;c 27 -104 0 -178 -78 -178&#xA;          "/></g><g id="headSmaller01" transform="scale(0.9, 0.97)"><g><path d="&#xA;m0 160&#xA;c -25 0 -78 -52 -78 -62&#xA;c -27 -104 0 -178 78 -178&#xA;M0 160&#xA;c 25 0 78 -52 78 -62&#xA;c 27 -104 0 -178 -78 -178&#xA;          "/></g></g></defs><use x="200" y="200" xlink:href="#head01" xmlns:xlink="http://www.w3.org/1999/xlink" fill="rgb(150, 100, 74)" stroke="black" stroke-width="2"/><use x="200" y="200" xlink:href="#head01" xmlns:xlink="http://www.w3.org/1999/xlink" fill="rgba(0,0,0,0.2)"/><use x="200" y="200" xlink:href="#headSmaller01" xmlns:xlink="http://www.w3.org/1999/xlink" fill="rgb(150, 100, 74)"/></g><g><defs><radialGradient id="iris00"><stop offset="40%" stop-color="gold"/><stop offset="85%" stop-color="green"/></radialGradient><radialGradient id="iris01"><stop offset="40%" stop-color="#9ee3f9"/><stop offset="85%" stop-color="#0f76ff"/></radialGradient><linearGradient id="iris02" gradientTransform="rotate(90)"><stop offset="20%" stop-color="#000"/><stop offset="50%" stop-color="#C55010"/></linearGradient><linearGradient id="eyeWhite" gradientTransform="rotate(80)"><stop offset="45%" style="stop-color: rgb(0, 0, 0); stop-opacity: 0.8;"/><stop offset="50%" style="stop-color: rgb(0, 0, 0); stop-opacity: 0;"/></linearGradient><path id="eyeOutline00" transform="rotate(5, 0, 0)" d="M 23.5 0&#xA;          c -23.5 11, -23.5 11, -47 0&#xA;          c 11.75 -11 35.25 -11 47 0&#xA;          Z" stroke="black" stroke-width="3"/><path id="eyeOutline01" transform="rotate(5, 0, 0)" d="M 23.5 -5.5&#xA;c-15 -4.4 -42 -4.4 -47 4.4&#xA;c 5 4.4 8 6.6000000000000005 9.4 6.6000000000000005&#xA;c10 2 23.5 2 28.200000000000003 0&#xA;c 0 0 8 -4.4 9.4 -11&#xA;" stroke="black" stroke-width="3"/><path id="eyeOutlineTop01" transform="rotate(5, 0, 0)" d="M 23.5 -5.5&#xA;c-15 -4.4 -42 -4.4 -47 4.4&#xA;c 5 4.4 8 6.6000000000000005 9.4 6.6000000000000005&#xA;c 0 0 0 0 -4.4 -6.6000000000000005&#xA;c 0 -10 50 -10 47 -4.4&#xA;&#xA;"/><path id="eyeOutlineTop00" transform="rotate(5, 0, 0)" d="M -23.5 0&#xA;          c 11.75 -11 35.25 -11 47 0&#xA;          c -6.75 -16 -40.25 -16 -47 1&#xA;          "/><g id="eyeBall00"><circle x="0" y="0" r="50" fill="#fff"/><ellipse stroke="black" stroke-width="1" cx="0" cy="0" rx="12.5" ry="16.666666666666668" fill="url(#iris02)"/><circle cx="0" cy="0" r="8" fill="black"/><ellipse cx="5" cy="-4" rx="4" ry="5" fill="white"/></g><g id="eyeBall01"><circle x="0" y="0" r="50" fill="#fff"/><ellipse stroke="black" stroke-width="3" cx="0" cy="0" rx="12.5" ry="12.5" fill="url(#iris02)"/><circle cx="0" cy="0" r="6" fill="black"/><ellipse cx="5" cy="-4" rx="2" ry="3" fill="white"/></g><clipPath id="eyeMaskLeft"><use href="#eyeOutline00"/></clipPath><clipPath id="eyeMaskRight"><use href="#eyeOutline00" transform="scale(-1, 1)"/></clipPath></defs>&gt;
    <g><use x="160.5" y="244" xlink:href="#eyeBall01" xmlns:xlink="http://www.w3.org/1999/xlink" style="clip-path: url(&quot;#eyeMaskLeft&quot;);"/><use x="160.5" y="244" xlink:href="#eyeOutlineTop00" xmlns:xlink="http://www.w3.org/1999/xlink" stroke="black" stroke-width="1" fill="#000"/></g><g><use x="239.5" y="244" xlink:href="#eyeBall01" xmlns:xlink="http://www.w3.org/1999/xlink" style="clip-path: url(&quot;#eyeMaskRight&quot;);"/><use x="-239.5" y="244" xlink:href="#eyeOutlineTop00" xmlns:xlink="http://www.w3.org/1999/xlink" stroke="black" stroke-width="1" transform="scale(-1, 1)" fill="#000"/></g></g><g><defs><g id="brows00" stroke-width="3"><path transform="rotate(-12, -47, 0)" d="M-16 0 c -5 -6 -47 -6 -47 0&#xA;      c 0 -5 47 -5 47 0&#xA;      "/><path transform="rotate(12, 47, 0)" d="M16 0 c 5 -6 47 -6 47 0&#xA;      c 0 -5 -47 -5 -47 0&#xA;      "/></g></defs><use x="200" y="223.5" xlink:href="#brows00" xmlns:xlink="http://www.w3.org/1999/xlink" stroke="rgba(0,0,0,0.8)" fill="#000"/></g><g><defs><g id="nose00"><path d="&#xA;      M0 31&#xA;      c 5 0 10 -5 15 0&#xA;      s -10 15 -15 15&#xA;      M0 31&#xA;      c -5 0 -10 -5 -15 0&#xA;      s 10 15 15 15&#xA;      " fill="rgb(0,0,0, 0.2)" stroke="none"/><path d="M5.5 34 c 0 -2 5 -2 7.5 0"/><path d="M-5.5 34 c 0 -2 -5 -2 -7.5 0"/></g><g id="nose01"><path d="M0 0 c 0 10 5 28 0 38"/><path d="M3.75 34 c 0 -2 5 -2 3.75 0"/><path d="M-5.75 34 c 0 -2 -5 -2 -3.75 0"/></g></defs><use x="200" y="253" xlink:href="#nose00" xmlns:xlink="http://www.w3.org/1999/xlink" stroke="black" stroke-width="2"/></g><g><defs><linearGradient id="teethWhite"><stop offset="0%" stop-color="#888"/><stop offset="30%" stop-color="#fff"/><stop offset="70%" stop-color="#fff"/><stop offset="100%" stop-color="#888"/></linearGradient><radialGradient r="520%" fx="50%" fy="25%" fr="20%" id="teethWhite01"><stop offset="2%" stop-color="#888"/><stop offset="6%" stop-color="#fff"/></radialGradient><g id="teeth00"><rect x="-21.5" y="-9" width="43" height="18" fill="#000"/><path d="M -30 -5&#xA;          c 20 8 40 8 60 0&#xA;          v-9 h-60&#xA;            " stroke="#000" stroke-width="2" fill="url(#teethWhite)"/></g><g id="mouth00"><path d="M-21.5 0 c 5 -5 30 -2 43 0" stroke-width="3"/><path stroke="rgba(0,0,0,0.4)" stroke-width="4" d="M-7.166666666666667 10 c 5 -2 10 -2 14.333333333333334 0"/></g><g stroke-width="2" id="mouth01"><path id="mouth01Outline" d="M 0 9&#xA;       c -14.333333333333334 0 -21.5 -9 -21.5 -18&#xA;       c 0 0 10.75 0 21.5 0&#xA;        M 0 9&#xA;       c 14.333333333333334 0 21.5 -9 21.5 -18&#xA;       c 0 0 -10.75 0 -21.5 0&#xA;        "/><path stroke="rgba(0,0,0,0.4)" stroke-width="2" d="M-10.75 14 c 5 3 16.5 3 21.5 0"/></g><g stroke-width="2" id="mouth02"><path id="mouth02Outline" d="M 0 9&#xA;       c -14.333333333333334 0 -21.5 -9 -21.5 -18&#xA;       c 0 0 10.75 0 21.5 0&#xA;        M 0 9&#xA;       c 14.333333333333334 0 21.5 -9 21.5 -18&#xA;       c 0 0 -10.75 0 -21.5 0&#xA;        "/><path stroke="rgba(0,0,0,0.4)" stroke-width="2" d="M-10.75 14 c 5 3 16.5 3 21.5 0"/></g><clipPath id="testMask"><rect x="-21.5" y="-9" width="43" height="18"/></clipPath><clipPath id="mouthMask"><use href="#mouth01Outline"/></clipPath></defs><use x="200" y="326" xlink:href="#teeth00" xmlns:xlink="http://www.w3.org/1999/xlink" style="clip-path: url(&quot;#mouthMask&quot;);"/><use x="200" y="326" xlink:href="#mouth01" xmlns:xlink="http://www.w3.org/1999/xlink" stroke="rgb(0,0,0)" fill="transparent"/></g><g><defs><linearGradient id="locksColor" gradientTransform="rotate( -20)"><stop offset="40%" stop-color="#222"/><stop offset="60%" stop-color="rgba(255,255,255,0.2)"/></linearGradient><radialGradient id="shineColor" cy="1%" r="1"><stop offset="25%" stop-color="rgba(255,255,255,0)"/><stop offset="30%" stop-color="rgba(255,255,255,0.2)"/><stop offset="40%" stop-color="rgba(255,255,255,0)"/></radialGradient><g id="hair00"><path d="&#xA;         m0 -50&#xA;c10 60 20 70 44.5 80&#xA;c0  0 -20 -20 0 -50&#xA;c10 50 20 60 44.5 80&#xA;c0  0 -20 -20 0 -50&#xA;c0 50  0 60 -10 80&#xA;c0  0 50 -20 34.5 -120&#xA;c10 10 10  10 10 15&#xA;c 0 -50 -50 -120 -111.25 -100&#xA;c0 -10 10 -10 10 -10&#xA;c -50 -10 -40 20 -66.75 20&#xA;c -100 10 -50 120  -70 160&#xA;c 10 -10 15 -10 22.25  -30&#xA;c 0 0 5 40 10 50&#xA;c 0 10 -10 -50 10 -100&#xA;c 0 20 10 30 22.25 30&#xA;c -10 -10 10 -40 10 -40&#xA;c 0 10 10 25 30 20&#xA;c -5 -10 -10 -20 10 -35&#xA;"/></g><g id="hair01"><path d="&#xA;        m0 -30&#xA;c 40 0 80 -59 84 80&#xA;c 30 -100 -20 -110 0 -180&#xA;c -10 0 -30 10 -39.5 40&#xA;c0 0 10 -20 0 -50&#xA;c 0 10 -30 40 -44.5 50&#xA;c0 0 10 -20 0 -50&#xA;M0 -30&#xA;c -40 0 -80 -59 -84 80&#xA;c-40 -150 50 -120 84 -190&#xA;"/></g><g id="hair02"><path d="&#xA;        M0 -40&#xA;c 40 0 70 -69 88 80&#xA;c20 -130 -40 -140 -88 -140&#xA;M0 -40&#xA;c -40 0 -70 -69 -88 80&#xA;c-20 -130 40 -140 88 -140&#xA;"/></g><g id="hair04"><path fill-rule="evenodd" d="&#xA;        M-30 -40&#xA;c 0 80 150 50 99 170&#xA;c 100 -220 -40 -220 -54.5 -220&#xA;c-50 0 -150 0 -99 140&#xA;c 0 -50 10 -70 54.5 -90&#xA;"/></g><g id="hair05"/><g id="hair06"><path d="&#xA;      M0 -110&#xA;      c 109 0 99 120 94 130&#xA;      c 10 -10 -44.5 -10 -89 -10&#xA;      l -3 -30&#xA;      l -2 30&#xA;      M0 -110&#xA;      c -109 0 -99 120 -94 130&#xA;      c 10 -10 44.5 -10 49.5 -10&#xA;      l 3 -20&#xA;      l 2 20&#xA;      s 10 0 39.5 0&#xA;"/></g><g id="hair07"><defs><path d="&#xA;      M-30 -100&#xA;c0 60 10 100 -70 140&#xA;c-10 -40 -20 -100 70 -140&#xA;"/><path d="&#xA;      M-30 -100&#xA;c0 60 10 100 -50 140&#xA;c-10 -40 -20 -100 50 -140&#xA;"/><path d="&#xA;      M-30 -100&#xA;c0 60 20 100 -10 130&#xA;c-10 -40 -20 -80 10 -130&#xA;"/><path d="&#xA;      M-30 -100&#xA;  c30 60 10 100 140 150&#xA;c10 -40 -0 -150 -140 -150&#xA;&#xA;"/><path d="&#xA;      M-30 -100&#xA;c30 120 140 100 110 170&#xA;c40 -50 40 -180 -110 -170&#xA;"/><path d="&#xA;      M-30 -100&#xA;c30 60 10 100 100 130&#xA;c10 -40 -20 -130 -100 -130&#xA;"/><path d="&#xA;      M-30 -100&#xA;c0 60 10 100 40 120&#xA;c10 -40 20 -80 -40 -120&#xA;"/></defs><g><path d="&#xA;      M-30 -100&#xA;c0 60 10 100 -70 140&#xA;c-10 -40 -20 -100 70 -140&#xA;"/><path d="&#xA;      M-30 -100&#xA;c0 60 10 100 -50 140&#xA;c-10 -40 -20 -100 50 -140&#xA;"/><path d="&#xA;      M-30 -100&#xA;c0 60 20 100 -10 130&#xA;c-10 -40 -20 -80 10 -130&#xA;"/><path d="&#xA;      M-30 -100&#xA;  c30 60 10 100 140 150&#xA;c10 -40 -0 -150 -140 -150&#xA;&#xA;"/><path d="&#xA;      M-30 -100&#xA;c30 120 140 100 110 170&#xA;c40 -50 40 -180 -110 -170&#xA;"/><path d="&#xA;      M-30 -100&#xA;c30 60 10 100 100 130&#xA;c10 -40 -20 -130 -100 -130&#xA;"/><path d="&#xA;      M-30 -100&#xA;c0 60 10 100 40 120&#xA;c10 -40 20 -80 -40 -120&#xA;"/></g></g><g id="hair08"><g><path d="&#xA;      M-44.5 -60&#xA;c0 60 89 70 138.5 90&#xA;c 20 -60 -20 -160 -128.5 -130&#xA;      M-44.5 -60&#xA;c0 60 -10 70 -45 90&#xA;c-20 -100 20 -120 55 -130&#xA;"/><path fill="transparent" stroke-width="2" d="&#xA;      M-44.5 -60&#xA;c0 60 -10 70 -40 90&#xA;      M-44.5 -60&#xA;c0 60 80 70 133.5 90&#xA;      M-24.5 -65&#xA;c20 60 70 70 123.5 90&#xA;l-10 -10&#xA;      M5.5 -70&#xA;c20 60 80 70 93.5 80&#xA;l-10 -20&#xA;      M-54.5 -40&#xA;c0 30 -10 40 -25 60&#xA;"/></g></g><g id="hair03"/></defs><use x="200" y="200" xlink:href="#hair01" xmlns:xlink="http://www.w3.org/1999/xlink" stroke="rgba(0,0,0,0.8)" stroke-width="2" fill="#222"/><use x="200" y="200" xlink:href="#hair01" xmlns:xlink="http://www.w3.org/1999/xlink" stroke-width="0" fill="url(#shineColor)"/></g></g><g stroke="rgba(0,0,0,0.7)" fill="rgba(255,255,255,0.5)" stroke-width="3"><path d=""/></g><!----></svg>